<svg width="314" height="30" viewBox="0 0 314 30" fill="none" xmlns="http://www.w3.org/2000/svg">
<circle cx="15" cy="15" r="15" fill="#EB6C27"/>
<path fill-rule="evenodd" clip-rule="evenodd" d="M15 10C13.065 10 11.5 11.565 11.5 13.5C11.5 16.125 15 20 15 20C15 20 18.5 16.125 18.5 13.5C18.5 11.565 16.935 10 15 10ZM12.5 13.5C12.5 12.12 13.62 11 15 11C16.38 11 17.5 12.12 17.5 13.5C17.5 14.94 16.06 17.095 15 18.44C13.96 17.105 12.5 14.925 12.5 13.5ZM13.75 13.5C13.75 12.8096 14.3096 12.25 15 12.25C15.4466 12.25 15.8592 12.4882 16.0825 12.875C16.3058 13.2618 16.3058 13.7382 16.0825 14.125C15.8592 14.5118 15.4466 14.75 15 14.75C14.3096 14.75 13.75 14.1904 13.75 13.5Z" fill="white"/>
<path d="M55.2969 20.5H52.8906L50.2725 16.2891L49.377 16.9316V20.5H47.2578V10.5059H49.377V15.0791C49.5182 14.8831 49.6572 14.6872 49.7939 14.4912C49.9307 14.2952 50.0697 14.0993 50.2109 13.9033L52.918 10.5059H55.2695L51.7832 14.9287L55.2969 20.5ZM60.6562 12.7139C60.7611 12.7139 60.8818 12.7207 61.0186 12.7344C61.1598 12.7435 61.2738 12.7572 61.3604 12.7754L61.2031 14.7305C61.1348 14.7077 61.0368 14.6917 60.9092 14.6826C60.7861 14.6689 60.679 14.6621 60.5879 14.6621C60.319 14.6621 60.057 14.6963 59.8018 14.7646C59.5511 14.833 59.3255 14.9447 59.125 15.0996C58.9245 15.25 58.765 15.4505 58.6465 15.7012C58.5326 15.9473 58.4756 16.2503 58.4756 16.6104V20.5H56.3906V12.8574H57.9697L58.2773 14.1426H58.3799C58.5303 13.8828 58.7171 13.6458 58.9404 13.4316C59.1683 13.2129 59.4258 13.0397 59.7129 12.9121C60.0046 12.7799 60.319 12.7139 60.6562 12.7139ZM57.6621 12.0166C57.5345 11.807 57.3659 11.5768 57.1562 11.3262C56.9466 11.071 56.7301 10.8226 56.5068 10.5811C56.2835 10.3395 56.0853 10.1322 55.9121 9.95898V9.77441H57.2998C57.5413 9.92936 57.8011 10.1071 58.0791 10.3076C58.3571 10.5036 58.6191 10.7269 58.8652 10.9775C59.1068 10.7269 59.3711 10.5013 59.6582 10.3008C59.9499 10.0957 60.2188 9.92025 60.4648 9.77441H61.8457V9.95898C61.6816 10.1276 61.488 10.3327 61.2646 10.5742C61.0413 10.8158 60.8226 11.0641 60.6084 11.3193C60.3988 11.5745 60.2279 11.807 60.0957 12.0166H57.6621ZM64.833 12.8574V20.5H62.748V12.8574H64.833ZM63.7939 9.86328C64.1038 9.86328 64.3704 9.9362 64.5938 10.082C64.8171 10.2233 64.9287 10.4899 64.9287 10.8818C64.9287 11.2692 64.8171 11.5381 64.5938 11.6885C64.3704 11.8343 64.1038 11.9072 63.7939 11.9072C63.4795 11.9072 63.2106 11.8343 62.9873 11.6885C62.7686 11.5381 62.6592 11.2692 62.6592 10.8818C62.6592 10.4899 62.7686 10.2233 62.9873 10.082C63.2106 9.9362 63.4795 9.86328 63.7939 9.86328ZM72.3457 20.5H66.3096V19.2695L69.8506 14.4502H66.5215V12.8574H72.2227V14.2109L68.7773 18.9072H72.3457V20.5ZM68.1621 12.0166C68.0345 11.807 67.8659 11.5768 67.6562 11.3262C67.4466 11.071 67.2301 10.8226 67.0068 10.5811C66.7835 10.3395 66.5853 10.1322 66.4121 9.95898V9.77441H67.7998C68.0413 9.92936 68.3011 10.1071 68.5791 10.3076C68.8571 10.5036 69.1191 10.7269 69.3652 10.9775C69.6068 10.7269 69.8711 10.5013 70.1582 10.3008C70.4499 10.0957 70.7188 9.92025 70.9648 9.77441H72.3457V9.95898C72.1816 10.1276 71.988 10.3327 71.7646 10.5742C71.5413 10.8158 71.3226 11.0641 71.1084 11.3193C70.8988 11.5745 70.7279 11.807 70.5957 12.0166H68.1621ZM76.9941 12.7002C78.0195 12.7002 78.8057 12.9235 79.3525 13.3701C79.8994 13.8167 80.1729 14.4958 80.1729 15.4072V20.5H78.7168L78.3135 19.4609H78.2588C78.04 19.7344 77.8167 19.9577 77.5889 20.1309C77.361 20.304 77.099 20.4316 76.8027 20.5137C76.5065 20.5957 76.1465 20.6367 75.7227 20.6367C75.2715 20.6367 74.8659 20.5501 74.5059 20.377C74.1504 20.2038 73.8701 19.9395 73.665 19.584C73.46 19.224 73.3574 18.7682 73.3574 18.2168C73.3574 17.4056 73.6423 16.8086 74.2119 16.4258C74.7816 16.0384 75.6361 15.8242 76.7754 15.7832L78.1016 15.7422V15.4072C78.1016 15.0062 77.9967 14.7122 77.7871 14.5254C77.5775 14.3385 77.2858 14.2451 76.9121 14.2451C76.543 14.2451 76.1807 14.2975 75.8252 14.4023C75.4697 14.5072 75.1143 14.6393 74.7588 14.7988L74.0684 13.3906C74.474 13.1764 74.9274 13.0078 75.4287 12.8848C75.9346 12.7617 76.4564 12.7002 76.9941 12.7002ZM78.1016 16.959L77.2949 16.9863C76.6204 17.0046 76.151 17.1253 75.8867 17.3486C75.627 17.5719 75.4971 17.8659 75.4971 18.2305C75.4971 18.5495 75.5905 18.7773 75.7773 18.9141C75.9642 19.0462 76.208 19.1123 76.5088 19.1123C76.9554 19.1123 77.3314 18.9801 77.6367 18.7158C77.9466 18.4515 78.1016 18.0755 78.1016 17.5879V16.959ZM86.667 12.7139C87.4827 12.7139 88.139 12.9372 88.6357 13.3838C89.1325 13.8258 89.3809 14.5368 89.3809 15.5166V20.5H87.2959V16.0361C87.2959 15.4893 87.1956 15.0768 86.9951 14.7988C86.7992 14.5208 86.4893 14.3818 86.0654 14.3818C85.4274 14.3818 84.9922 14.5983 84.7598 15.0312C84.5273 15.4642 84.4111 16.0885 84.4111 16.9043V20.5H82.3262V12.8574H83.9189L84.1992 13.835H84.3154C84.4795 13.5706 84.6823 13.3564 84.9238 13.1924C85.1699 13.0283 85.4411 12.9076 85.7373 12.8301C86.0381 12.7526 86.348 12.7139 86.667 12.7139ZM96.8594 18.2305C96.8594 18.75 96.7363 19.1898 96.4902 19.5498C96.2487 19.9053 95.8864 20.1764 95.4033 20.3633C94.9202 20.5456 94.3187 20.6367 93.5986 20.6367C93.0654 20.6367 92.6074 20.6025 92.2246 20.5342C91.8464 20.4658 91.4635 20.3519 91.0762 20.1924V18.4697C91.4909 18.6566 91.9352 18.8115 92.4092 18.9346C92.8877 19.0531 93.307 19.1123 93.667 19.1123C94.0726 19.1123 94.362 19.0531 94.5352 18.9346C94.7129 18.8115 94.8018 18.652 94.8018 18.4561C94.8018 18.3285 94.7653 18.2145 94.6924 18.1143C94.624 18.0094 94.4736 17.8932 94.2412 17.7656C94.0088 17.6335 93.6442 17.4626 93.1475 17.2529C92.6689 17.0524 92.2747 16.8496 91.9648 16.6445C91.6595 16.4395 91.4316 16.1979 91.2812 15.9199C91.1354 15.6374 91.0625 15.2796 91.0625 14.8467C91.0625 14.1403 91.3359 13.6094 91.8828 13.2539C92.4342 12.8939 93.1702 12.7139 94.0908 12.7139C94.5648 12.7139 95.016 12.7617 95.4443 12.8574C95.8773 12.9531 96.3216 13.1058 96.7773 13.3154L96.1484 14.8193C95.7702 14.6553 95.4124 14.5208 95.0752 14.416C94.7425 14.3112 94.403 14.2588 94.0566 14.2588C93.7513 14.2588 93.5212 14.2998 93.3662 14.3818C93.2113 14.4639 93.1338 14.5892 93.1338 14.7578C93.1338 14.8809 93.1725 14.9902 93.25 15.0859C93.332 15.1816 93.487 15.2887 93.7148 15.4072C93.9473 15.5212 94.2868 15.6693 94.7334 15.8516C95.1663 16.0293 95.5423 16.2161 95.8613 16.4121C96.1803 16.6035 96.4264 16.8428 96.5996 17.1299C96.7728 17.4124 96.8594 17.7793 96.8594 18.2305ZM100.571 9.86328V14.6211C100.571 14.9082 100.56 15.1953 100.537 15.4824C100.514 15.7695 100.489 16.0566 100.462 16.3438H100.489C100.631 16.1432 100.774 15.945 100.92 15.749C101.07 15.5531 101.23 15.3639 101.398 15.1816L103.538 12.8574H105.89L102.854 16.1729L106.074 20.5H103.668L101.467 17.4033L100.571 18.1211V20.5H98.4863V9.86328H100.571ZM110.299 12.7002C111.324 12.7002 112.11 12.9235 112.657 13.3701C113.204 13.8167 113.478 14.4958 113.478 15.4072V20.5H112.021L111.618 19.4609H111.563C111.345 19.7344 111.121 19.9577 110.894 20.1309C110.666 20.304 110.404 20.4316 110.107 20.5137C109.811 20.5957 109.451 20.6367 109.027 20.6367C108.576 20.6367 108.171 20.5501 107.811 20.377C107.455 20.2038 107.175 19.9395 106.97 19.584C106.765 19.224 106.662 18.7682 106.662 18.2168C106.662 17.4056 106.947 16.8086 107.517 16.4258C108.086 16.0384 108.941 15.8242 110.08 15.7832L111.406 15.7422V15.4072C111.406 15.0062 111.301 14.7122 111.092 14.5254C110.882 14.3385 110.59 14.2451 110.217 14.2451C109.848 14.2451 109.485 14.2975 109.13 14.4023C108.774 14.5072 108.419 14.6393 108.063 14.7988L107.373 13.3906C107.779 13.1764 108.232 13.0078 108.733 12.8848C109.239 12.7617 109.761 12.7002 110.299 12.7002ZM111.406 16.959L110.6 16.9863C109.925 17.0046 109.456 17.1253 109.191 17.3486C108.932 17.5719 108.802 17.8659 108.802 18.2305C108.802 18.5495 108.895 18.7773 109.082 18.9141C109.269 19.0462 109.513 19.1123 109.813 19.1123C110.26 19.1123 110.636 18.9801 110.941 18.7158C111.251 18.4515 111.406 18.0755 111.406 17.5879V16.959ZM112.985 9.77441V9.91797C112.853 10.0456 112.68 10.2028 112.466 10.3896C112.252 10.5765 112.021 10.7725 111.775 10.9775C111.529 11.1781 111.288 11.3717 111.051 11.5586C110.814 11.7409 110.606 11.8936 110.429 12.0166H109.041V11.832C109.191 11.6589 109.365 11.4538 109.561 11.2168C109.761 10.9753 109.959 10.7269 110.155 10.4717C110.351 10.2165 110.515 9.98405 110.647 9.77441H112.985ZM123.957 20.5H121.845V14.7168C121.845 14.5573 121.847 14.3613 121.852 14.1289C121.856 13.8919 121.863 13.6504 121.872 13.4043C121.881 13.1536 121.89 12.9281 121.899 12.7275C121.849 12.7868 121.747 12.8893 121.592 13.0352C121.441 13.1764 121.3 13.304 121.168 13.418L120.02 14.3408L119.001 13.0693L122.221 10.5059H123.957V20.5ZM133.732 20.5H126.746V19.0303L129.255 16.4941C129.761 15.9746 130.166 15.5417 130.472 15.1953C130.782 14.8444 131.005 14.5254 131.142 14.2383C131.283 13.9512 131.354 13.6436 131.354 13.3154C131.354 12.9189 131.242 12.6227 131.019 12.4268C130.8 12.2262 130.506 12.126 130.137 12.126C129.749 12.126 129.373 12.2148 129.009 12.3926C128.644 12.5703 128.264 12.8232 127.867 13.1514L126.719 11.791C127.006 11.5449 127.309 11.3125 127.628 11.0938C127.951 10.875 128.325 10.6995 128.749 10.5674C129.177 10.4307 129.69 10.3623 130.287 10.3623C130.943 10.3623 131.506 10.4808 131.976 10.7178C132.45 10.9548 132.814 11.2783 133.069 11.6885C133.325 12.0941 133.452 12.5544 133.452 13.0693C133.452 13.6208 133.343 14.1243 133.124 14.5801C132.905 15.0358 132.586 15.487 132.167 15.9336C131.752 16.3802 131.251 16.8747 130.663 17.417L129.378 18.627V18.7227H133.732V20.5ZM137.232 18.873L137.335 19.0303C137.253 19.3584 137.146 19.7116 137.014 20.0898C136.886 20.4681 136.745 20.8464 136.59 21.2246C136.439 21.6029 136.287 21.9629 136.132 22.3047H134.628C134.719 21.9355 134.808 21.5482 134.895 21.1426C134.981 20.737 135.061 20.3382 135.134 19.9463C135.211 19.5544 135.273 19.1966 135.318 18.873H137.232ZM143.084 20.5V10.5059H145.203V18.75H149.257V20.5H143.084ZM152.921 12.8574V20.5H150.836V12.8574H152.921ZM151.882 9.86328C152.192 9.86328 152.458 9.9362 152.682 10.082C152.905 10.2233 153.017 10.4899 153.017 10.8818C153.017 11.2692 152.905 11.5381 152.682 11.6885C152.458 11.8343 152.192 11.9072 151.882 11.9072C151.567 11.9072 151.299 11.8343 151.075 11.6885C150.856 11.5381 150.747 11.2692 150.747 10.8818C150.747 10.4899 150.856 10.2233 151.075 10.082C151.299 9.9362 151.567 9.86328 151.882 9.86328ZM157.2 9.86328V12.3379C157.2 12.625 157.191 12.9098 157.173 13.1924C157.159 13.4749 157.141 13.6937 157.118 13.8486H157.2C157.401 13.5342 157.674 13.2676 158.021 13.0488C158.367 12.8255 158.816 12.7139 159.367 12.7139C160.224 12.7139 160.919 13.0488 161.452 13.7188C161.985 14.3887 162.252 15.3708 162.252 16.665C162.252 17.5355 162.129 18.2669 161.883 18.8594C161.637 19.4473 161.293 19.8916 160.851 20.1924C160.409 20.4886 159.896 20.6367 159.312 20.6367C158.752 20.6367 158.31 20.5365 157.986 20.3359C157.663 20.1354 157.401 19.9098 157.2 19.6592H157.057L156.708 20.5H155.115V9.86328H157.2ZM158.697 14.3818C158.333 14.3818 158.043 14.457 157.829 14.6074C157.615 14.7578 157.458 14.9834 157.357 15.2842C157.262 15.585 157.209 15.9655 157.2 16.4258V16.6514C157.2 17.3942 157.31 17.9639 157.528 18.3604C157.747 18.7523 158.146 18.9482 158.725 18.9482C159.153 18.9482 159.493 18.75 159.743 18.3535C159.998 17.957 160.126 17.3851 160.126 16.6377C160.126 15.8903 159.998 15.3275 159.743 14.9492C159.488 14.571 159.139 14.3818 158.697 14.3818ZM167.126 12.7139C167.832 12.7139 168.441 12.8506 168.951 13.124C169.462 13.3929 169.856 13.7848 170.134 14.2998C170.412 14.8148 170.551 15.4437 170.551 16.1865V17.1982H165.622C165.645 17.7861 165.82 18.2487 166.148 18.5859C166.481 18.9186 166.941 19.085 167.529 19.085C168.017 19.085 168.464 19.0348 168.869 18.9346C169.275 18.8343 169.692 18.6839 170.12 18.4834V20.0967C169.742 20.2835 169.345 20.4202 168.931 20.5068C168.521 20.5934 168.021 20.6367 167.434 20.6367C166.668 20.6367 165.989 20.4954 165.396 20.2129C164.809 19.9303 164.346 19.4997 164.009 18.9209C163.676 18.3421 163.51 17.613 163.51 16.7334C163.51 15.8402 163.66 15.0973 163.961 14.5049C164.266 13.9079 164.69 13.4613 165.232 13.165C165.775 12.8643 166.406 12.7139 167.126 12.7139ZM167.14 14.1973C166.734 14.1973 166.397 14.3271 166.128 14.5869C165.864 14.8467 165.711 15.2546 165.67 15.8105H168.596C168.591 15.5007 168.534 15.2249 168.425 14.9834C168.32 14.7419 168.16 14.5505 167.946 14.4092C167.737 14.2679 167.468 14.1973 167.14 14.1973ZM176.512 12.7139C176.617 12.7139 176.737 12.7207 176.874 12.7344C177.015 12.7435 177.129 12.7572 177.216 12.7754L177.059 14.7305C176.99 14.7077 176.892 14.6917 176.765 14.6826C176.642 14.6689 176.535 14.6621 176.443 14.6621C176.174 14.6621 175.912 14.6963 175.657 14.7646C175.407 14.833 175.181 14.9447 174.98 15.0996C174.78 15.25 174.62 15.4505 174.502 15.7012C174.388 15.9473 174.331 16.2503 174.331 16.6104V20.5H172.246V12.8574H173.825L174.133 14.1426H174.235C174.386 13.8828 174.573 13.6458 174.796 13.4316C175.024 13.2129 175.281 13.0397 175.568 12.9121C175.86 12.7799 176.174 12.7139 176.512 12.7139ZM181.755 12.7139C182.461 12.7139 183.07 12.8506 183.58 13.124C184.09 13.3929 184.485 13.7848 184.763 14.2998C185.041 14.8148 185.18 15.4437 185.18 16.1865V17.1982H180.251C180.274 17.7861 180.449 18.2487 180.777 18.5859C181.11 18.9186 181.57 19.085 182.158 19.085C182.646 19.085 183.092 19.0348 183.498 18.9346C183.904 18.8343 184.321 18.6839 184.749 18.4834V20.0967C184.371 20.2835 183.974 20.4202 183.56 20.5068C183.149 20.5934 182.65 20.6367 182.062 20.6367C181.297 20.6367 180.618 20.4954 180.025 20.2129C179.438 19.9303 178.975 19.4997 178.638 18.9209C178.305 18.3421 178.139 17.613 178.139 16.7334C178.139 15.8402 178.289 15.0973 178.59 14.5049C178.895 13.9079 179.319 13.4613 179.861 13.165C180.404 12.8643 181.035 12.7139 181.755 12.7139ZM181.769 14.1973C181.363 14.1973 181.026 14.3271 180.757 14.5869C180.493 14.8467 180.34 15.2546 180.299 15.8105H183.225C183.22 15.5007 183.163 15.2249 183.054 14.9834C182.949 14.7419 182.789 14.5505 182.575 14.4092C182.366 14.2679 182.097 14.1973 181.769 14.1973ZM189.979 20.6367C189.222 20.6367 188.577 20.5 188.044 20.2266C187.511 19.9486 187.105 19.5202 186.827 18.9414C186.549 18.3626 186.41 17.6221 186.41 16.7197C186.41 15.7855 186.567 15.0244 186.882 14.4365C187.201 13.8441 187.641 13.4089 188.201 13.1309C188.766 12.8529 189.42 12.7139 190.163 12.7139C190.692 12.7139 191.147 12.7663 191.53 12.8711C191.918 12.9714 192.255 13.0921 192.542 13.2334L191.927 14.8467C191.599 14.7145 191.293 14.6074 191.011 14.5254C190.728 14.4388 190.446 14.3955 190.163 14.3955C189.799 14.3955 189.495 14.4821 189.254 14.6553C189.012 14.8239 188.832 15.0791 188.714 15.4209C188.595 15.7627 188.536 16.1911 188.536 16.7061C188.536 17.2119 188.6 17.6312 188.728 17.9639C188.855 18.2965 189.04 18.5449 189.281 18.709C189.523 18.8685 189.817 18.9482 190.163 18.9482C190.596 18.9482 190.981 18.8913 191.318 18.7773C191.656 18.6589 191.984 18.4948 192.303 18.2852V20.0693C191.984 20.2699 191.649 20.4134 191.298 20.5C190.951 20.5911 190.512 20.6367 189.979 20.6367ZM205.961 20.5H203.541L201.217 16.7197L198.893 20.5H196.623L199.938 15.3457L196.835 10.5059H199.173L201.326 14.1016L203.438 10.5059H205.722L202.584 15.4619L205.961 20.5ZM215.299 20.5H212.879L210.555 16.7197L208.23 20.5H205.961L209.276 15.3457L206.173 10.5059H208.511L210.664 14.1016L212.776 10.5059H215.06L211.922 15.4619L215.299 20.5ZM216.557 20.5V10.5059H218.676V20.5H216.557ZM221.191 20.5V10.5059H223.311V20.5H221.191ZM224.985 17.6016V15.8926H228.656V17.6016H224.985ZM238.527 20.5H236.415V16.1865H232.457V20.5H230.338V10.5059H232.457V14.4229H236.415V10.5059H238.527V20.5ZM247.838 16.665C247.838 17.3031 247.751 17.8682 247.578 18.3604C247.41 18.8525 247.161 19.2695 246.833 19.6113C246.509 19.9486 246.118 20.2038 245.657 20.377C245.201 20.5501 244.687 20.6367 244.112 20.6367C243.575 20.6367 243.08 20.5501 242.629 20.377C242.182 20.2038 241.793 19.9486 241.46 19.6113C241.132 19.2695 240.877 18.8525 240.694 18.3604C240.517 17.8682 240.428 17.3031 240.428 16.665C240.428 15.8174 240.578 15.0996 240.879 14.5117C241.18 13.9238 241.608 13.4772 242.164 13.1719C242.72 12.8665 243.383 12.7139 244.153 12.7139C244.869 12.7139 245.502 12.8665 246.054 13.1719C246.61 13.4772 247.045 13.9238 247.359 14.5117C247.678 15.0996 247.838 15.8174 247.838 16.665ZM242.554 16.665C242.554 17.1663 242.608 17.5879 242.718 17.9297C242.827 18.2715 242.998 18.529 243.23 18.7021C243.463 18.8753 243.766 18.9619 244.14 18.9619C244.509 18.9619 244.807 18.8753 245.035 18.7021C245.268 18.529 245.436 18.2715 245.541 17.9297C245.65 17.5879 245.705 17.1663 245.705 16.665C245.705 16.1592 245.65 15.7399 245.541 15.4072C245.436 15.07 245.268 14.8171 245.035 14.6484C244.803 14.4798 244.5 14.3955 244.126 14.3955C243.575 14.3955 243.174 14.5846 242.923 14.9629C242.677 15.3411 242.554 15.9085 242.554 16.665ZM253.826 12.7139C253.931 12.7139 254.052 12.7207 254.188 12.7344C254.33 12.7435 254.444 12.7572 254.53 12.7754L254.373 14.7305C254.305 14.7077 254.207 14.6917 254.079 14.6826C253.956 14.6689 253.849 14.6621 253.758 14.6621C253.489 14.6621 253.227 14.6963 252.972 14.7646C252.721 14.833 252.495 14.9447 252.295 15.0996C252.094 15.25 251.935 15.4505 251.816 15.7012C251.702 15.9473 251.646 16.2503 251.646 16.6104V20.5H249.561V12.8574H251.14L251.447 14.1426H251.55C251.7 13.8828 251.887 13.6458 252.11 13.4316C252.338 13.2129 252.596 13.0397 252.883 12.9121C253.174 12.7799 253.489 12.7139 253.826 12.7139ZM260.259 12.7139C261.075 12.7139 261.731 12.9372 262.228 13.3838C262.724 13.8258 262.973 14.5368 262.973 15.5166V20.5H260.888V16.0361C260.888 15.4893 260.787 15.0768 260.587 14.7988C260.391 14.5208 260.081 14.3818 259.657 14.3818C259.019 14.3818 258.584 14.5983 258.352 15.0312C258.119 15.4642 258.003 16.0885 258.003 16.9043V20.5H255.918V12.8574H257.511L257.791 13.835H257.907C258.071 13.5706 258.274 13.3564 258.516 13.1924C258.762 13.0283 259.033 12.9076 259.329 12.8301C259.63 12.7526 259.94 12.7139 260.259 12.7139ZM267.204 20.5H265.119V12.8574H267.204V20.5ZM268.852 9.77441V9.91797C268.719 10.0456 268.546 10.2028 268.332 10.3896C268.118 10.5765 267.888 10.7725 267.642 10.9775C267.396 11.1781 267.154 11.3717 266.917 11.5586C266.68 11.7409 266.473 11.8936 266.295 12.0166H264.907V11.832C265.058 11.6589 265.231 11.4538 265.427 11.2168C265.627 10.9753 265.826 10.7269 266.021 10.4717C266.217 10.2165 266.382 9.98405 266.514 9.77441H268.852ZM279.099 17.7246C279.099 18.3171 278.955 18.832 278.668 19.2695C278.381 19.707 277.962 20.0443 277.41 20.2812C276.863 20.5182 276.198 20.6367 275.414 20.6367C275.068 20.6367 274.728 20.6139 274.396 20.5684C274.067 20.5228 273.751 20.4567 273.445 20.3701C273.145 20.279 272.857 20.1673 272.584 20.0352V18.0664C273.058 18.276 273.55 18.4652 274.061 18.6338C274.571 18.8024 275.077 18.8867 275.578 18.8867C275.924 18.8867 276.202 18.8411 276.412 18.75C276.626 18.6589 276.781 18.5335 276.877 18.374C276.973 18.2145 277.021 18.0322 277.021 17.8271C277.021 17.5765 276.936 17.3623 276.768 17.1846C276.599 17.0068 276.367 16.8405 276.07 16.6855C275.779 16.5306 275.448 16.3643 275.079 16.1865C274.847 16.0771 274.594 15.945 274.32 15.79C274.047 15.6305 273.787 15.4368 273.541 15.209C273.295 14.9811 273.092 14.7054 272.933 14.3818C272.778 14.0537 272.7 13.6618 272.7 13.2061C272.7 12.609 272.837 12.0986 273.11 11.6748C273.384 11.251 273.773 10.9274 274.279 10.7041C274.79 10.4762 275.391 10.3623 276.084 10.3623C276.604 10.3623 277.098 10.4238 277.567 10.5469C278.041 10.6654 278.536 10.8385 279.051 11.0664L278.367 12.7139C277.907 12.527 277.494 12.3835 277.13 12.2832C276.765 12.1784 276.394 12.126 276.016 12.126C275.751 12.126 275.526 12.1693 275.339 12.2559C275.152 12.3379 275.011 12.4564 274.915 12.6113C274.819 12.7617 274.771 12.9372 274.771 13.1377C274.771 13.3747 274.84 13.5752 274.977 13.7393C275.118 13.8988 275.327 14.0537 275.605 14.2041C275.888 14.3545 276.239 14.5299 276.658 14.7305C277.169 14.972 277.604 15.2249 277.964 15.4893C278.328 15.749 278.609 16.0566 278.805 16.4121C279.001 16.763 279.099 17.2005 279.099 17.7246ZM287.76 12.8574V20.5H286.16L285.88 19.5225H285.771C285.606 19.7822 285.401 19.9941 285.155 20.1582C284.909 20.3223 284.638 20.443 284.342 20.5205C284.046 20.598 283.738 20.6367 283.419 20.6367C282.872 20.6367 282.396 20.541 281.99 20.3496C281.585 20.1536 281.268 19.8506 281.04 19.4404C280.817 19.0303 280.705 18.4971 280.705 17.8408V12.8574H282.79V17.3213C282.79 17.8682 282.888 18.2806 283.084 18.5586C283.28 18.8366 283.592 18.9756 284.021 18.9756C284.444 18.9756 284.777 18.8799 285.019 18.6885C285.26 18.4925 285.429 18.2077 285.524 17.834C285.625 17.4557 285.675 16.9954 285.675 16.4531V12.8574H287.76ZM293.051 20.6367C292.294 20.6367 291.649 20.5 291.116 20.2266C290.583 19.9486 290.177 19.5202 289.899 18.9414C289.621 18.3626 289.482 17.6221 289.482 16.7197C289.482 15.7855 289.64 15.0244 289.954 14.4365C290.273 13.8441 290.713 13.4089 291.273 13.1309C291.839 12.8529 292.493 12.7139 293.235 12.7139C293.764 12.7139 294.22 12.7663 294.603 12.8711C294.99 12.9714 295.327 13.0921 295.614 13.2334L294.999 14.8467C294.671 14.7145 294.366 14.6074 294.083 14.5254C293.8 14.4388 293.518 14.3955 293.235 14.3955C292.871 14.3955 292.568 14.4821 292.326 14.6553C292.085 14.8239 291.905 15.0791 291.786 15.4209C291.668 15.7627 291.608 16.1911 291.608 16.7061C291.608 17.2119 291.672 17.6312 291.8 17.9639C291.927 18.2965 292.112 18.5449 292.354 18.709C292.595 18.8685 292.889 18.9482 293.235 18.9482C293.668 18.9482 294.053 18.8913 294.391 18.7773C294.728 18.6589 295.056 18.4948 295.375 18.2852V20.0693C295.056 20.2699 294.721 20.4134 294.37 20.5C294.024 20.5911 293.584 20.6367 293.051 20.6367ZM299.237 9.86328V12.0303C299.237 12.4085 299.224 12.7686 299.196 13.1104C299.174 13.4521 299.155 13.6937 299.142 13.835H299.251C299.415 13.5706 299.609 13.3564 299.832 13.1924C300.06 13.0283 300.311 12.9076 300.584 12.8301C300.857 12.7526 301.151 12.7139 301.466 12.7139C302.017 12.7139 302.498 12.8118 302.908 13.0078C303.318 13.1992 303.637 13.5023 303.865 13.917C304.093 14.3271 304.207 14.8604 304.207 15.5166V20.5H302.122V16.0361C302.122 15.4893 302.022 15.0768 301.821 14.7988C301.621 14.5208 301.311 14.3818 300.892 14.3818C300.472 14.3818 300.142 14.4798 299.9 14.6758C299.659 14.8672 299.488 15.152 299.388 15.5303C299.287 15.904 299.237 16.362 299.237 16.9043V20.5H297.152V9.86328H299.237ZM309.484 12.7002C310.51 12.7002 311.296 12.9235 311.843 13.3701C312.39 13.8167 312.663 14.4958 312.663 15.4072V20.5H311.207L310.804 19.4609H310.749C310.53 19.7344 310.307 19.9577 310.079 20.1309C309.851 20.304 309.589 20.4316 309.293 20.5137C308.997 20.5957 308.637 20.6367 308.213 20.6367C307.762 20.6367 307.356 20.5501 306.996 20.377C306.641 20.2038 306.36 19.9395 306.155 19.584C305.95 19.224 305.848 18.7682 305.848 18.2168C305.848 17.4056 306.132 16.8086 306.702 16.4258C307.272 16.0384 308.126 15.8242 309.266 15.7832L310.592 15.7422V15.4072C310.592 15.0062 310.487 14.7122 310.277 14.5254C310.068 14.3385 309.776 14.2451 309.402 14.2451C309.033 14.2451 308.671 14.2975 308.315 14.4023C307.96 14.5072 307.604 14.6393 307.249 14.7988L306.559 13.3906C306.964 13.1764 307.418 13.0078 307.919 12.8848C308.425 12.7617 308.947 12.7002 309.484 12.7002ZM310.592 16.959L309.785 16.9863C309.111 17.0046 308.641 17.1253 308.377 17.3486C308.117 17.5719 307.987 17.8659 307.987 18.2305C307.987 18.5495 308.081 18.7773 308.268 18.9141C308.454 19.0462 308.698 19.1123 308.999 19.1123C309.446 19.1123 309.822 18.9801 310.127 18.7158C310.437 18.4515 310.592 18.0755 310.592 17.5879V16.959ZM312.171 9.77441V9.91797C312.039 10.0456 311.866 10.2028 311.651 10.3896C311.437 10.5765 311.207 10.7725 310.961 10.9775C310.715 11.1781 310.473 11.3717 310.236 11.5586C309.999 11.7409 309.792 11.8936 309.614 12.0166H308.227V11.832C308.377 11.6589 308.55 11.4538 308.746 11.2168C308.947 10.9753 309.145 10.7269 309.341 10.4717C309.537 10.2165 309.701 9.98405 309.833 9.77441H312.171Z" fill="#EB6C27"/>
<a href="https://www.google.com/maps/place/K%C5%99i%C5%BEansk%C3%A1+12,+Horn%C3%AD+Such%C3%A1,+460+10+Liberec/@50.7600366,15.0014291,17z/data=!4m5!3m4!1s0x470936fe7ea6ccbb:0x362ba2cad58e444!8m2!3d50.760661!4d15.0022228?hl=cs-CZ">
<rect fill="black" fill-opacity="0" y="-0.0327148" width="267.716" height="19.0654"/>
</a>
</svg>
