<svg width="208" height="30" viewBox="0 0 208 30" fill="none" xmlns="http://www.w3.org/2000/svg">
<circle cx="15" cy="15" r="15" fill="#EB6C27"/>
<path fill-rule="evenodd" clip-rule="evenodd" d="M20 12C20 11.45 19.55 11 19 11H11C10.45 11 10 11.45 10 12V18C10 18.55 10.45 19 11 19H19C19.55 19 20 18.55 20 18V12ZM19 12L15 14.495L11 12H19ZM15 15.5L11 13V18H19V13L15 15.5Z" fill="white"/>
<path d="M52.4258 18.2305C52.4258 18.75 52.3027 19.1898 52.0566 19.5498C51.8151 19.9053 51.4528 20.1764 50.9697 20.3633C50.4867 20.5456 49.8851 20.6367 49.165 20.6367C48.6318 20.6367 48.1738 20.6025 47.791 20.5342C47.4128 20.4658 47.0299 20.3519 46.6426 20.1924V18.4697C47.0573 18.6566 47.5016 18.8115 47.9756 18.9346C48.4541 19.0531 48.8734 19.1123 49.2334 19.1123C49.639 19.1123 49.9284 19.0531 50.1016 18.9346C50.2793 18.8115 50.3682 18.652 50.3682 18.4561C50.3682 18.3285 50.3317 18.2145 50.2588 18.1143C50.1904 18.0094 50.04 17.8932 49.8076 17.7656C49.5752 17.6335 49.2106 17.4626 48.7139 17.2529C48.2354 17.0524 47.8411 16.8496 47.5312 16.6445C47.2259 16.4395 46.998 16.1979 46.8477 15.9199C46.7018 15.6374 46.6289 15.2796 46.6289 14.8467C46.6289 14.1403 46.9023 13.6094 47.4492 13.2539C48.0007 12.8939 48.7367 12.7139 49.6572 12.7139C50.1312 12.7139 50.5824 12.7617 51.0107 12.8574C51.4437 12.9531 51.888 13.1058 52.3438 13.3154L51.7148 14.8193C51.3366 14.6553 50.9788 14.5208 50.6416 14.416C50.3089 14.3112 49.9694 14.2588 49.623 14.2588C49.3177 14.2588 49.0876 14.2998 48.9326 14.3818C48.7777 14.4639 48.7002 14.5892 48.7002 14.7578C48.7002 14.8809 48.7389 14.9902 48.8164 15.0859C48.8984 15.1816 49.0534 15.2887 49.2812 15.4072C49.5137 15.5212 49.8532 15.6693 50.2998 15.8516C50.7327 16.0293 51.1087 16.2161 51.4277 16.4121C51.7467 16.6035 51.9928 16.8428 52.166 17.1299C52.3392 17.4124 52.4258 17.7793 52.4258 18.2305ZM57.2725 18.9756C57.5003 18.9756 57.7214 18.9528 57.9355 18.9072C58.1543 18.8617 58.3708 18.8047 58.585 18.7363V20.2881C58.3617 20.3883 58.0837 20.4704 57.751 20.5342C57.4229 20.6025 57.0628 20.6367 56.6709 20.6367C56.2152 20.6367 55.805 20.5638 55.4404 20.418C55.0804 20.2676 54.7956 20.0101 54.5859 19.6455C54.3809 19.2764 54.2783 18.7637 54.2783 18.1074V14.4229H53.2803V13.541L54.4287 12.8438L55.0303 11.2305H56.3633V12.8574H58.5029V14.4229H56.3633V18.1074C56.3633 18.3991 56.4453 18.6178 56.6094 18.7637C56.778 18.9049 56.999 18.9756 57.2725 18.9756ZM63.2676 12.7002C64.293 12.7002 65.0791 12.9235 65.626 13.3701C66.1729 13.8167 66.4463 14.4958 66.4463 15.4072V20.5H64.9902L64.5869 19.4609H64.5322C64.3135 19.7344 64.0902 19.9577 63.8623 20.1309C63.6344 20.304 63.3724 20.4316 63.0762 20.5137C62.7799 20.5957 62.4199 20.6367 61.9961 20.6367C61.5449 20.6367 61.1393 20.5501 60.7793 20.377C60.4238 20.2038 60.1436 19.9395 59.9385 19.584C59.7334 19.224 59.6309 18.7682 59.6309 18.2168C59.6309 17.4056 59.9157 16.8086 60.4854 16.4258C61.055 16.0384 61.9095 15.8242 63.0488 15.7832L64.375 15.7422V15.4072C64.375 15.0062 64.2702 14.7122 64.0605 14.5254C63.8509 14.3385 63.5592 14.2451 63.1855 14.2451C62.8164 14.2451 62.4541 14.2975 62.0986 14.4023C61.7432 14.5072 61.3877 14.6393 61.0322 14.7988L60.3418 13.3906C60.7474 13.1764 61.2008 13.0078 61.7021 12.8848C62.208 12.7617 62.7298 12.7002 63.2676 12.7002ZM64.375 16.959L63.5684 16.9863C62.8939 17.0046 62.4245 17.1253 62.1602 17.3486C61.9004 17.5719 61.7705 17.8659 61.7705 18.2305C61.7705 18.5495 61.8639 18.7773 62.0508 18.9141C62.2376 19.0462 62.4814 19.1123 62.7822 19.1123C63.2288 19.1123 63.6048 18.9801 63.9102 18.7158C64.2201 18.4515 64.375 18.0755 64.375 17.5879V16.959ZM70.418 20.5L67.5059 12.8574H69.6865L71.1631 17.2119C71.2451 17.4671 71.3089 17.736 71.3545 18.0186C71.4046 18.3011 71.4388 18.554 71.457 18.7773H71.5117C71.5254 18.5358 71.5573 18.2783 71.6074 18.0049C71.6621 17.7314 71.7327 17.4671 71.8193 17.2119L73.2891 12.8574H75.4697L72.5576 20.5H70.418ZM78.6553 9.86328V12.3379C78.6553 12.625 78.6462 12.9098 78.6279 13.1924C78.6143 13.4749 78.596 13.6937 78.5732 13.8486H78.6553C78.8558 13.5342 79.1292 13.2676 79.4756 13.0488C79.8219 12.8255 80.2708 12.7139 80.8223 12.7139C81.679 12.7139 82.374 13.0488 82.9072 13.7188C83.4404 14.3887 83.707 15.3708 83.707 16.665C83.707 17.5355 83.584 18.2669 83.3379 18.8594C83.0918 19.4473 82.7477 19.8916 82.3057 20.1924C81.8636 20.4886 81.3509 20.6367 80.7676 20.6367C80.207 20.6367 79.765 20.5365 79.4414 20.3359C79.1178 20.1354 78.8558 19.9098 78.6553 19.6592H78.5117L78.1631 20.5H76.5703V9.86328H78.6553ZM80.1523 14.3818C79.7878 14.3818 79.4984 14.457 79.2842 14.6074C79.07 14.7578 78.9128 14.9834 78.8125 15.2842C78.7168 15.585 78.6644 15.9655 78.6553 16.4258V16.6514C78.6553 17.3942 78.7646 17.9639 78.9834 18.3604C79.2021 18.7523 79.6009 18.9482 80.1797 18.9482C80.6081 18.9482 80.9476 18.75 81.1982 18.3535C81.4535 17.957 81.5811 17.3851 81.5811 16.6377C81.5811 15.8903 81.4535 15.3275 81.1982 14.9492C80.943 14.571 80.5944 14.3818 80.1523 14.3818ZM84.3359 12.8574H86.6191L88.0615 17.1572C88.1071 17.2939 88.1458 17.4329 88.1777 17.5742C88.2096 17.7155 88.237 17.8613 88.2598 18.0117C88.2826 18.1621 88.3008 18.3193 88.3145 18.4834H88.3555C88.3828 18.2373 88.4193 18.0072 88.4648 17.793C88.515 17.5788 88.5765 17.3669 88.6494 17.1572L90.0645 12.8574H92.2998L89.0664 21.4775C88.8704 22.0062 88.6152 22.446 88.3008 22.7969C87.9863 23.1523 87.624 23.4189 87.2139 23.5967C86.8083 23.7744 86.3617 23.8633 85.874 23.8633C85.637 23.8633 85.432 23.8496 85.2588 23.8223C85.0856 23.7995 84.9375 23.7744 84.8145 23.7471V22.0928C84.9102 22.1156 85.0309 22.1361 85.1768 22.1543C85.3226 22.1725 85.4753 22.1816 85.6348 22.1816C85.9264 22.1816 86.1771 22.1201 86.3867 21.9971C86.5964 21.874 86.7718 21.7077 86.9131 21.498C87.0544 21.293 87.166 21.0674 87.248 20.8213L87.3711 20.4453L84.3359 12.8574ZM104.167 15.4893C104.167 15.9222 104.115 16.3506 104.01 16.7744C103.91 17.1937 103.755 17.5742 103.545 17.916C103.335 18.2533 103.071 18.5244 102.752 18.7295C102.438 18.93 102.064 19.0303 101.631 19.0303C101.289 19.0303 100.986 18.9482 100.722 18.7842C100.462 18.6201 100.28 18.4082 100.175 18.1484H100.065C99.874 18.3809 99.6234 18.5859 99.3135 18.7637C99.0036 18.9414 98.6276 19.0303 98.1855 19.0303C97.3516 19.0303 96.709 18.7819 96.2578 18.2852C95.8066 17.7839 95.5811 17.1276 95.5811 16.3164C95.5811 15.6875 95.7155 15.1338 95.9844 14.6553C96.2533 14.1722 96.6361 13.7939 97.1328 13.5205C97.6296 13.2471 98.2152 13.1104 98.8896 13.1104C99.3317 13.1104 99.7852 13.1514 100.25 13.2334C100.719 13.3109 101.086 13.3952 101.351 13.4863L101.214 16.3574C101.205 16.4531 101.198 16.5488 101.193 16.6445C101.193 16.7402 101.193 16.8018 101.193 16.8291C101.193 17.2165 101.246 17.474 101.351 17.6016C101.46 17.7246 101.581 17.7861 101.713 17.7861C101.923 17.7861 102.098 17.6813 102.239 17.4717C102.381 17.262 102.488 16.9818 102.561 16.6309C102.633 16.2799 102.67 15.8949 102.67 15.4756C102.67 14.6963 102.51 14.0332 102.191 13.4863C101.877 12.9349 101.444 12.5156 100.893 12.2285C100.346 11.9368 99.7236 11.791 99.0264 11.791C98.2926 11.791 97.6455 11.9072 97.085 12.1396C96.5244 12.3721 96.0527 12.6979 95.6699 13.1172C95.2917 13.5365 95.0046 14.0309 94.8086 14.6006C94.6172 15.1702 94.5215 15.7923 94.5215 16.4668C94.5215 17.3053 94.6719 18.0163 94.9727 18.5996C95.2734 19.1829 95.7155 19.625 96.2988 19.9258C96.8867 20.2266 97.6045 20.377 98.4521 20.377C98.9945 20.377 99.5573 20.3177 100.141 20.1992C100.729 20.0762 101.266 19.9235 101.754 19.7412V21.0605C101.307 21.2474 100.808 21.3955 100.257 21.5049C99.7054 21.6188 99.1221 21.6758 98.5068 21.6758C97.3493 21.6758 96.3604 21.4707 95.54 21.0605C94.7197 20.6504 94.0908 20.0602 93.6533 19.29C93.2204 18.5153 93.0039 17.5879 93.0039 16.5078C93.0039 15.6602 93.1429 14.874 93.4209 14.1494C93.7035 13.4202 94.1068 12.7845 94.6309 12.2422C95.1549 11.6953 95.7861 11.2692 96.5244 10.9639C97.2673 10.6585 98.0967 10.5059 99.0127 10.5059C100.011 10.5059 100.897 10.7087 101.672 11.1143C102.451 11.5153 103.062 12.0872 103.504 12.8301C103.946 13.5729 104.167 14.4593 104.167 15.4893ZM97.167 16.3438C97.167 16.8542 97.2718 17.2233 97.4814 17.4512C97.6956 17.6745 97.9827 17.7861 98.3428 17.7861C98.8122 17.7861 99.1426 17.6152 99.334 17.2734C99.5254 16.9316 99.637 16.485 99.6689 15.9336L99.7578 14.4229C99.653 14.4001 99.5345 14.3841 99.4023 14.375C99.2702 14.3613 99.1266 14.3545 98.9717 14.3545C98.5296 14.3545 98.1764 14.4525 97.9121 14.6484C97.6478 14.8398 97.4564 15.0882 97.3379 15.3936C97.224 15.6943 97.167 16.0111 97.167 16.3438ZM108.05 9.86328V12.0303C108.05 12.4085 108.036 12.7686 108.009 13.1104C107.986 13.4521 107.968 13.6937 107.954 13.835H108.063C108.228 13.5706 108.421 13.3564 108.645 13.1924C108.872 13.0283 109.123 12.9076 109.396 12.8301C109.67 12.7526 109.964 12.7139 110.278 12.7139C110.83 12.7139 111.311 12.8118 111.721 13.0078C112.131 13.1992 112.45 13.5023 112.678 13.917C112.906 14.3271 113.02 14.8604 113.02 15.5166V20.5H110.935V16.0361C110.935 15.4893 110.834 15.0768 110.634 14.7988C110.433 14.5208 110.123 14.3818 109.704 14.3818C109.285 14.3818 108.954 14.4798 108.713 14.6758C108.471 14.8672 108.3 15.152 108.2 15.5303C108.1 15.904 108.05 16.362 108.05 16.9043V20.5H105.965V9.86328H108.05ZM124.142 12.7139C125.007 12.7139 125.661 12.9372 126.104 13.3838C126.55 13.8258 126.773 14.5368 126.773 15.5166V20.5H124.682V16.0361C124.682 15.4893 124.588 15.0768 124.401 14.7988C124.215 14.5208 123.925 14.3818 123.533 14.3818C122.982 14.3818 122.59 14.5801 122.357 14.9766C122.125 15.3685 122.009 15.9313 122.009 16.665V20.5H119.924V16.0361C119.924 15.6715 119.883 15.3662 119.801 15.1201C119.719 14.874 119.593 14.6895 119.425 14.5664C119.256 14.4434 119.04 14.3818 118.775 14.3818C118.388 14.3818 118.083 14.4798 117.859 14.6758C117.641 14.8672 117.483 15.152 117.388 15.5303C117.297 15.904 117.251 16.362 117.251 16.9043V20.5H115.166V12.8574H116.759L117.039 13.835H117.155C117.31 13.5706 117.504 13.3564 117.736 13.1924C117.973 13.0283 118.233 12.9076 118.516 12.8301C118.798 12.7526 119.085 12.7139 119.377 12.7139C119.938 12.7139 120.411 12.805 120.799 12.9873C121.191 13.1696 121.492 13.4521 121.701 13.835H121.886C122.114 13.443 122.435 13.1582 122.85 12.9805C123.269 12.8027 123.7 12.7139 124.142 12.7139ZM128.243 17.6016V15.8926H131.914V17.6016H128.243ZM135.517 9.86328V12.3379C135.517 12.625 135.507 12.9098 135.489 13.1924C135.476 13.4749 135.457 13.6937 135.435 13.8486H135.517C135.717 13.5342 135.991 13.2676 136.337 13.0488C136.683 12.8255 137.132 12.7139 137.684 12.7139C138.54 12.7139 139.235 13.0488 139.769 13.7188C140.302 14.3887 140.568 15.3708 140.568 16.665C140.568 17.5355 140.445 18.2669 140.199 18.8594C139.953 19.4473 139.609 19.8916 139.167 20.1924C138.725 20.4886 138.212 20.6367 137.629 20.6367C137.068 20.6367 136.626 20.5365 136.303 20.3359C135.979 20.1354 135.717 19.9098 135.517 19.6592H135.373L135.024 20.5H133.432V9.86328H135.517ZM137.014 14.3818C136.649 14.3818 136.36 14.457 136.146 14.6074C135.931 14.7578 135.774 14.9834 135.674 15.2842C135.578 15.585 135.526 15.9655 135.517 16.4258V16.6514C135.517 17.3942 135.626 17.9639 135.845 18.3604C136.063 18.7523 136.462 18.9482 137.041 18.9482C137.469 18.9482 137.809 18.75 138.06 18.3535C138.315 17.957 138.442 17.3851 138.442 16.6377C138.442 15.8903 138.315 15.3275 138.06 14.9492C137.804 14.571 137.456 14.3818 137.014 14.3818ZM149.305 12.8574V20.5H147.705L147.425 19.5225H147.315C147.151 19.7822 146.946 19.9941 146.7 20.1582C146.454 20.3223 146.183 20.443 145.887 20.5205C145.59 20.598 145.283 20.6367 144.964 20.6367C144.417 20.6367 143.941 20.541 143.535 20.3496C143.13 20.1536 142.813 19.8506 142.585 19.4404C142.362 19.0303 142.25 18.4971 142.25 17.8408V12.8574H144.335V17.3213C144.335 17.8682 144.433 18.2806 144.629 18.5586C144.825 18.8366 145.137 18.9756 145.565 18.9756C145.989 18.9756 146.322 18.8799 146.563 18.6885C146.805 18.4925 146.974 18.2077 147.069 17.834C147.17 17.4557 147.22 16.9954 147.22 16.4531V12.8574H149.305ZM153.577 12.8574V20.5H151.492V12.8574H153.577ZM152.538 9.86328C152.848 9.86328 153.115 9.9362 153.338 10.082C153.561 10.2233 153.673 10.4899 153.673 10.8818C153.673 11.2692 153.561 11.5381 153.338 11.6885C153.115 11.8343 152.848 11.9072 152.538 11.9072C152.224 11.9072 151.955 11.8343 151.731 11.6885C151.513 11.5381 151.403 11.2692 151.403 10.8818C151.403 10.4899 151.513 10.2233 151.731 10.082C151.955 9.9362 152.224 9.86328 152.538 9.86328ZM157.856 20.5H155.771V9.86328H157.856V20.5ZM162.471 20.6367C161.618 20.6367 160.924 20.304 160.386 19.6387C159.853 18.9688 159.586 17.9867 159.586 16.6924C159.586 15.3844 159.857 14.3955 160.399 13.7256C160.942 13.0511 161.65 12.7139 162.525 12.7139C162.89 12.7139 163.211 12.764 163.489 12.8643C163.767 12.9645 164.007 13.099 164.207 13.2676C164.412 13.4362 164.585 13.6253 164.727 13.835H164.795C164.768 13.6891 164.733 13.4749 164.692 13.1924C164.656 12.9053 164.638 12.6113 164.638 12.3105V9.86328H166.729V20.5H165.13L164.727 19.5088H164.638C164.506 19.7184 164.339 19.9098 164.139 20.083C163.943 20.2516 163.708 20.3861 163.435 20.4863C163.161 20.5866 162.84 20.6367 162.471 20.6367ZM163.202 18.9756C163.772 18.9756 164.173 18.807 164.405 18.4697C164.642 18.1279 164.768 17.6152 164.781 16.9316V16.7061C164.781 15.9632 164.667 15.3958 164.439 15.0039C164.212 14.6074 163.788 14.4092 163.168 14.4092C162.708 14.4092 162.348 14.6074 162.088 15.0039C161.828 15.4004 161.698 15.9723 161.698 16.7197C161.698 17.4671 161.828 18.0299 162.088 18.4082C162.352 18.7865 162.724 18.9756 163.202 18.9756ZM170.995 12.8574V20.5H168.91V12.8574H170.995ZM169.956 9.86328C170.266 9.86328 170.533 9.9362 170.756 10.082C170.979 10.2233 171.091 10.4899 171.091 10.8818C171.091 11.2692 170.979 11.5381 170.756 11.6885C170.533 11.8343 170.266 11.9072 169.956 11.9072C169.642 11.9072 169.373 11.8343 169.149 11.6885C168.931 11.5381 168.821 11.2692 168.821 10.8818C168.821 10.4899 168.931 10.2233 169.149 10.082C169.373 9.9362 169.642 9.86328 169.956 9.86328ZM177.53 12.7139C178.346 12.7139 179.002 12.9372 179.499 13.3838C179.996 13.8258 180.244 14.5368 180.244 15.5166V20.5H178.159V16.0361C178.159 15.4893 178.059 15.0768 177.858 14.7988C177.662 14.5208 177.353 14.3818 176.929 14.3818C176.291 14.3818 175.855 14.5983 175.623 15.0312C175.391 15.4642 175.274 16.0885 175.274 16.9043V20.5H173.189V12.8574H174.782L175.062 13.835H175.179C175.343 13.5706 175.546 13.3564 175.787 13.1924C176.033 13.0283 176.304 12.9076 176.601 12.8301C176.901 12.7526 177.211 12.7139 177.53 12.7139ZM184.626 23.8633C183.56 23.8633 182.744 23.6764 182.179 23.3027C181.618 22.9336 181.338 22.4141 181.338 21.7441C181.338 21.2839 181.481 20.8988 181.769 20.5889C182.056 20.279 182.477 20.0579 183.033 19.9258C182.819 19.8346 182.632 19.6865 182.473 19.4814C182.313 19.2718 182.233 19.0508 182.233 18.8184C182.233 18.5267 182.318 18.2852 182.486 18.0938C182.655 17.8978 182.899 17.7064 183.218 17.5195C182.817 17.3464 182.498 17.0684 182.261 16.6855C182.028 16.3027 181.912 15.8516 181.912 15.332C181.912 14.776 182.033 14.3044 182.274 13.917C182.521 13.5251 182.876 13.2266 183.341 13.0215C183.81 12.8164 184.38 12.7139 185.05 12.7139C185.191 12.7139 185.355 12.723 185.542 12.7412C185.729 12.7594 185.9 12.7799 186.055 12.8027C186.214 12.8255 186.321 12.8438 186.376 12.8574H189.042V13.917L187.846 14.2246C187.955 14.3932 188.037 14.5732 188.092 14.7646C188.146 14.9561 188.174 15.1589 188.174 15.373C188.174 16.1934 187.887 16.8337 187.312 17.2939C186.743 17.7497 185.95 17.9775 184.934 17.9775C184.692 17.9639 184.464 17.9456 184.25 17.9229C184.145 18.0049 184.065 18.0915 184.011 18.1826C183.956 18.2738 183.929 18.3695 183.929 18.4697C183.929 18.57 183.97 18.6543 184.052 18.7227C184.138 18.7865 184.266 18.8366 184.435 18.873C184.608 18.9049 184.822 18.9209 185.077 18.9209H186.376C187.215 18.9209 187.853 19.1009 188.29 19.4609C188.732 19.821 188.953 20.3496 188.953 21.0469C188.953 21.9401 188.579 22.6328 187.832 23.125C187.089 23.6172 186.021 23.8633 184.626 23.8633ZM184.715 22.5029C185.212 22.5029 185.638 22.4551 185.993 22.3594C186.353 22.2682 186.629 22.1361 186.82 21.9629C187.012 21.7943 187.107 21.5915 187.107 21.3545C187.107 21.1631 187.05 21.0104 186.937 20.8965C186.827 20.7871 186.659 20.7096 186.431 20.6641C186.207 20.6185 185.92 20.5957 185.569 20.5957H184.489C184.234 20.5957 184.004 20.6367 183.799 20.7188C183.598 20.8008 183.439 20.9147 183.32 21.0605C183.202 21.2109 183.143 21.3841 183.143 21.5801C183.143 21.8672 183.279 22.0928 183.553 22.2568C183.831 22.4209 184.218 22.5029 184.715 22.5029ZM185.05 16.7061C185.442 16.7061 185.729 16.5853 185.911 16.3438C186.093 16.1022 186.185 15.7741 186.185 15.3594C186.185 14.8991 186.089 14.555 185.897 14.3271C185.711 14.0947 185.428 13.9785 185.05 13.9785C184.667 13.9785 184.38 14.0947 184.188 14.3271C183.997 14.555 183.901 14.8991 183.901 15.3594C183.901 15.7741 183.995 16.1022 184.182 16.3438C184.373 16.5853 184.662 16.7061 185.05 16.7061ZM190.013 19.5225C190.013 19.0941 190.129 18.7933 190.361 18.6201C190.598 18.4469 190.883 18.3604 191.216 18.3604C191.539 18.3604 191.817 18.4469 192.05 18.6201C192.287 18.7933 192.405 19.0941 192.405 19.5225C192.405 19.9326 192.287 20.2288 192.05 20.4111C191.817 20.5934 191.539 20.6846 191.216 20.6846C190.883 20.6846 190.598 20.5934 190.361 20.4111C190.129 20.2288 190.013 19.9326 190.013 19.5225ZM197.402 20.6367C196.646 20.6367 196.001 20.5 195.468 20.2266C194.935 19.9486 194.529 19.5202 194.251 18.9414C193.973 18.3626 193.834 17.6221 193.834 16.7197C193.834 15.7855 193.991 15.0244 194.306 14.4365C194.625 13.8441 195.064 13.4089 195.625 13.1309C196.19 12.8529 196.844 12.7139 197.587 12.7139C198.116 12.7139 198.571 12.7663 198.954 12.8711C199.341 12.9714 199.679 13.0921 199.966 13.2334L199.351 14.8467C199.022 14.7145 198.717 14.6074 198.435 14.5254C198.152 14.4388 197.869 14.3955 197.587 14.3955C197.222 14.3955 196.919 14.4821 196.678 14.6553C196.436 14.8239 196.256 15.0791 196.138 15.4209C196.019 15.7627 195.96 16.1911 195.96 16.7061C195.96 17.2119 196.024 17.6312 196.151 17.9639C196.279 18.2965 196.464 18.5449 196.705 18.709C196.947 18.8685 197.241 18.9482 197.587 18.9482C198.02 18.9482 198.405 18.8913 198.742 18.7773C199.079 18.6589 199.408 18.4948 199.727 18.2852V20.0693C199.408 20.2699 199.073 20.4134 198.722 20.5C198.375 20.5911 197.936 20.6367 197.402 20.6367ZM206.822 20.5H200.786V19.2695L204.327 14.4502H200.998V12.8574H206.699V14.2109L203.254 18.9072H206.822V20.5Z" fill="#EB6C27"/>
</svg>
